#!OML:ASF E:\acrobat2\Project_11_07_03\Capture day 1\Session 1\Acrobat.ASF
:FULLY-SPECIFIED
:DEGREES
493
root 8.68862 17.2156 5.72488 15.3753 3.82132 5.55311
lowerback 18.1527 0.183396 -0.260081
upperback 7.3243 0.197904 -0.538427
thorax -2.31917 0.11293 -0.459753
lowerneck 3.38759 -4.13713 -2.31686
upperneck -14.9796 -5.53156 2.45222
head -4.91534 -2.76226 1.42432
rclavicle 9.93923e-015 -5.56597e-015
rhumerus 26.6719 60.2582 -29.8445
rradius 84.6665
rwrist 11.991
rhand -13.8745 -25.0732
rfingers 7.12502
rthumb 12.2501 -54.6945
lclavicle 9.93923e-015 -5.56597e-015
lhumerus 44.4245 -46.211 25.0616
lradius 87.2068
lwrist 5.8101
lhand -16.1073 -24.0942
lfingers 7.12502
lthumb 10.0966 5.64356
rfemur -58.5388 -14.418 17.0632
rtibia 68.4474
rfoot -4.97921 -11.5394
rtoes -5.15989
lfemur -53.3616 12.0743 -26.7172
ltibia 54.8747
lfoot -0.593394 -5.10469
ltoes 33.2607
494
root 8.68987 17.017 5.71842 15.4664 3.93466 5.33887
lowerback 18.5765 0.185418 -0.305466
upperback 7.4423 0.196576 -0.428611
thorax -2.4133 0.110538 -0.31951
lowerneck 3.277 -4.16473 -2.24379
upperneck -15.5486 -5.56066 2.47302
head -5.07294 -2.77948 1.42887
rclavicle 4.77083e-015 0
rhumerus 30.5941 59.6661 -26.4244
rradius 85.7574
rwrist 12.293
rhand -14.142 -24.8429
rfingers 7.12502
rthumb 11.9922 -54.4794
lclavicle 4.77083e-015 0
lhumerus 47.8363 -45.1434 22.3036
lradius 88.3847
lwrist 5.74013
lhand -16.9156 -24.5368
lfingers 7.12502
lthumb 9.31678 5.23735
rfemur -59.9179 -14.4808 17.8336
rtibia 70.231
rfoot -4.88468 -11.2709
rtoes -5.79987
lfemur -54.6877 12.1004 -26.6775
ltibia 56.4111
lfoot -0.906835 -5.30163
ltoes 33.9988
495
root 8.69313 16.806 5.71551 15.5742 4.04054 5.12944
lowerback 18.9357 0.172953 -0.344848
upperback 7.55136 0.176733 -0.342532
thorax -2.48264 0.0993767 -0.20339
lowerneck 3.08813 -4.1616 -2.15373
upperneck -16.0166 -5.54375 2.49635
head -5.18793 -2.77574 1.42519
rclavicle 3.57812e-015 -3.18055e-014
rhumerus 34.2775 58.9232 -23.3083
rradius 86.812
rwrist 12.5761
rhand -14.3317 -24.5504
rfingers 7.12502
rthumb 11.8093 -54.1974
lclavicle 3.57812e-015 -3.18055e-014
lhumerus 51.0143 -43.9331 19.7224
lradius 89.5318
lwrist 5.69208
lhand -17.7348 -24.9945
lfingers 7.12502
lthumb 8.52625 4.81339
rfemur -61.2711 -14.5375 18.6006
rtibia 72.06
rfoot -5.16464 -11.2649
rtoes -5.52641
lfemur -56.0294 12.0785 -26.6555
ltibia 58.1095
lfoot -1.48031 -5.77231
ltoes 34.9044
496
root 8.69836 16.584 5.71579 15.6823 4.14561 4.94981
lowerback 19.2676 0.145238 -0.391904
upperback 7.65157 0.134673 -0.285846
thorax -2.54645 0.0775704 -0.108927
lowerneck 2.81407 -4.12033 -2.06544
upperneck -16.381 -5.46983 2.5367
head -5.25731 -2.74546 1.4199
rclavicle -2.78299e-015 -1.59028e-015
rhumerus 37.7134 58.0517 -20.5023
rradius 87.8208
rwrist 12.8379
rhand -14.4508 -24.2385
rfingers 7.12502
rthumb 11.6944 -53.8921
lclavicle -2.78299e-015 -1.59028e-015
lhumerus 53.9739 -42.5956 17.3192
lradius 90.6465
lwrist 5.65857
lhand -18.5121 -25.4867
lfingers 7.12502
lthumb 7.77605 4.35031
rfemur -62.5635 -14.5925 19.3082
rtibia 73.9429
rfoot -5.98859 -11.4262
rtoes -4.7458
lfemur -57.3536 11.9935 -26.6733
ltibia 59.9687
lfoot -2.368 -6.49334
ltoes 35.677
497
root 8.70415 16.3511 5.71796 15.8201 4.28958 4.82927
lowerback 19.5569 0.0936731 -0.465446
upperback 7.73485 0.0563378 -0.253715
thorax -2.60564 0.0379643 -0.017233
lowerneck 2.48077 -4.04915 -1.98636
upperneck -16.6728 -5.35192 2.59081
head -5.29444 -2.6942 1.41526
rclavicle -4.37326e-015 -5.96354e-015
rhumerus 40.8967 57.0629 -18.0081
rradius 88.7825
rwrist 13.0404
rhand -14.4606 -23.9343
rfingers 7.12502
rthumb 11.685 -53.5885
lclavicle -4.37326e-015 -5.96354e-015
lhumerus 56.7235 -41.1463 15.1122
lradius 91.7168
lwrist 5.62391
lhand -19.2185 -26.0395
lfingers 7.12502
lthumb 7.09423 3.82159
rfemur -63.8449 -14.6734 19.9333
rtibia 75.9366
rfoot -7.48938 -11.666
rtoes -3.86301
lfemur -58.7082 11.8062 -26.7573
ltibia 62.0028
lfoot -3.56185 -7.39554
ltoes 36.0939
498
root 8.70927 16.1075 5.72263 15.992 4.46814 4.77052
lowerback 19.7933 0.0244235 -0.587088
upperback 7.80124 -0.0538147 -0.235579
thorax -2.65488 -0.0177226 0.0943746
lowerneck 2.13422 -3.96136 -1.9148
upperneck -16.9353 -5.21046 2.65125
head -5.32042 -2.63146 1.41191
rclavicle -1.19271e-015 2.38542e-015
rhumerus 43.8375 55.9836 -15.8139
rradius 89.6956
rwrist 13.171
rhand -14.341 -23.6595
rfingers 7.12502
rthumb 11.8002 -53.3071
lclavicle -1.19271e-015 2.38542e-015
lhumerus 59.273 -39.6131 13.1021
lradius 92.7307
lwrist 5.58872
lhand -19.8772 -26.6299
lfingers 7.12502
lthumb 6.4584 3.25165
rfemur -65.1351 -14.7628 20.4587
rtibia 78.0205
rfoot -9.58286 -11.9669
rtoes -3.19764
lfemur -60.1126 11.5355 -26.9049
ltibia 64.1876
lfoot -5.01012 -8.37885
ltoes 36.0636
499
root 8.71338 15.856 5.72812 16.1605 4.6644 4.75537
lowerback 20.0547 -0.0542292 -0.745806
upperback 7.85033 -0.183828 -0.227187
thorax -2.73416 -0.0833418 0.221737
lowerneck 1.80887 -3.86473 -1.84649
upperneck -17.1993 -5.0562 2.71925
head -5.3505 -2.56281 1.41159
rclavicle -8.74653e-015 -3.97569e-016
rhumerus 46.5397 54.8374 -13.9107
rradius 90.563
rwrist 13.2349
rhand -14.1105 -23.4512
rfingers 7.12502
rthumb 12.0226 -53.0859
lclavicle -8.74653e-015 -3.97569e-016
lhumerus 61.6384 -38.0243 11.2764
lradius 93.6793
lwrist 5.55253
lhand -20.4946 -27.2208
lfingers 7.12502
lthumb 5.86229 2.67806
rfemur -66.4133 -14.8438 20.8986
rtibia 80.5724
rfoot -18.8106 -27.6414
rtoes -2.94287
lfemur -61.5394 11.2159 -27.0897
ltibia 66.4654
lfoot -6.61452 -9.32658
ltoes 35.6089
500
root 8.71581 15.596 5.73266 16.3919 4.89417 4.78028
lowerback 20.2739 -0.145241 -0.934576
upperback 7.87103 -0.335811 -0.223383
thorax -2.82076 -0.159842 0.366934
lowerneck 1.55506 -3.77455 -1.76729
upperneck -17.5261 -4.91113 2.78715
head -5.4125 -2.49957 1.41304
rclavicle 3.18055e-015 0
rhumerus 49.0212 53.6411 -12.2664
rradius 91.3928
rwrist 13.2414
rhand -13.8338 -23.3718
rfingers 7.12502
rthumb 12.2894 -52.9907
lclavicle 3.18055e-015 0
lhumerus 63.8201 -36.3983 9.64913
lradius 94.5448
lwrist 5.50784
lhand -21.0329 -27.8655
lfingers 7.12502
lthumb 5.34263 2.04712
rfemur -67.8053 -14.9243 21.2894
rtibia 83.5776
rfoot -30.0567 -42.9142
rtoes -3.07599
lfemur -63.1077 10.8312 -27.3211
ltibia 68.8292
lfoot -8.25814 -10.149
ltoes 35.0355
501
root 8.71733 15.3302 5.73605 16.6422 5.09423 4.81215
lowerback 20.5005 -0.222441 -1.14395
upperback 7.87668 -0.475027 -0.22116
thorax -2.92599 -0.230028 0.520329
lowerneck 1.35533 -3.68841 -1.70766
upperneck -17.9032 -4.77051 2.87352
head -5.49838 -2.43883 1.42599
rclavicle 1.59028e-015 1.82882e-014
rhumerus 51.2904 52.4096 -10.8484
rradius 92.1882
rwrist 13.2119
rhand -13.5694 -23.433
rfingers 7.12502
rthumb 12.5442 -53.0364
lclavicle 1.59028e-015 1.82882e-014
lhumerus 65.8335 -34.7571 8.22182
lradius 95.3318
lwrist 5.43486
lhand -21.498 -28.4964
lfingers 7.12502
lthumb 4.89351 1.42706
rfemur -69.2732 -14.9432 21.652
rtibia 86.3658
rfoot -46.3938 -57.2793
rtoes -3.49626
lfemur -64.7762 10.4588 -27.5706
ltibia 71.2453
lfoot -9.90245 -10.794
ltoes 34.5769
502
root 8.72015 15.0599 5.73808 16.914 5.23547 4.83268
lowerback 20.7193 -0.278899 -1.34389
upperback 7.87535 -0.58724 -0.224826
thorax -3.03422 -0.286538 0.656865
lowerneck 1.21362 -3.61396 -1.65812
upperneck -18.3483 -4.64512 2.97022
head -5.61484 -2.38611 1.44727
rclavicle 0 7.15625e-015
rhumerus 53.3589 51.1481 -9.62071
rradius 92.942
rwrist 13.2032
rhand -13.4059 -23.6478
rfingers 7.12502
rthumb 12.7019 -53.2415
lclavicle 0 7.15625e-015
lhumerus 67.6926 -33.107 6.99046
lradius 96.056
lwrist 5.37477
lhand -21.8685 -29.0765
lfingers 7.12502
lthumb 4.53574 0.854971
rfemur -70.8424 -14.8889 22.006
rtibia 88.3708
rfoot -77.145 -68.5795
rtoes -3.99996
lfemur -66.5611 10.1155 -27.8335
ltibia 73.7321
lfoot -11.5556 -11.2298
ltoes 34.2627
503
root 8.72508 14.7869 5.73737 17.2014 5.32326 4.84715
lowerback 20.9404 -0.321223 -1.52654
upperback 7.87633 -0.679603 -0.238663
thorax -3.14091 -0.332764 0.768919
lowerneck 1.06505 -3.53714 -1.63134
upperneck -18.803 -4.51442 3.08257
head -5.73273 -2.33067 1.47704
rclavicle -5.56597e-015 1.19271e-015
rhumerus 55.2319 49.8479 -8.57841
rradius 93.6691
rwrist 13.1565
rhand -13.2718 -23.8948
rfingers 7.12502
rthumb 12.8312 -53.4804
lclavicle -5.56597e-015 1.19271e-015
lhumerus 69.4039 -31.4495 5.92863
lradius 96.7354
lwrist 5.3543
lhand -22.1511 -29.5739
lfingers 7.12502
lthumb 4.26284 0.363187
rfemur -72.5253 -14.7817 22.352
rtibia 89.1892
rfoot -128.463 -69.9613
rtoes -4.34049
lfemur -68.4557 9.79205 -28.1234
ltibia 76.3162
lfoot -13.2123 -11.4254
ltoes 34.1065
